<?xml version="1.0" standalone="no"?>
<!DOCTYPE svg PUBLIC "-//W3C//DTD SVG 20010904//EN"
 "http://www.w3.org/TR/2001/REC-SVG-20010904/DTD/svg10.dtd">
<svg version="1.0" xmlns="http://www.w3.org/2000/svg"
 width="512.000000pt" height="512.000000pt" viewBox="0 0 512.000000 512.000000"
 preserveAspectRatio="xMidYMid meet">

<g transform="translate(0.000000,512.000000) scale(0.100000,-0.100000)"
fill="#000000" stroke="none">
<path d="M2200 5109 c-1063 -64 -1785 -405 -1606 -758 129 -253 661 -448 1441
-528 262 -26 823 -24 1091 5 872 94 1426 340 1426 632 0 410 -1132 722 -2352
649z"/>
<path d="M539 4175 c-24 -59 -24 -66 -27 -428 -3 -410 -1 -426 63 -543 91
-164 334 -332 646 -448 624 -231 1535 -277 2274 -115 615 136 1014 382 1100
681 14 48 16 108 13 425 -3 362 -3 369 -27 428 -23 56 -25 58 -34 35 -48 -130
-142 -218 -332 -312 -668 -333 -2059 -393 -2977 -129 -182 52 -374 138 -483
216 -96 68 -147 131 -182 225 -9 23 -11 21 -34 -35z"/>
<path d="M555 2961 c-40 -78 -45 -133 -45 -491 0 -201 5 -364 11 -390 77 -337
611 -630 1346 -739 276 -42 343 -46 698 -46 436 1 675 27 1013 110 582 144
956 391 1021 676 13 56 14 720 1 775 -5 23 -19 62 -30 88 l-20 47 -48 -63
c-208 -272 -742 -489 -1397 -567 -1042 -125 -2159 131 -2489 570 l-45 60 -16
-30z"/>
<path d="M551 1659 c-39 -87 -42 -132 -39 -510 3 -331 5 -368 23 -409 153
-362 721 -623 1555 -717 216 -24 723 -24 940 0 835 93 1417 363 1556 722 18
46 19 78 19 440 0 385 0 391 -23 447 -13 32 -27 60 -31 63 -5 2 -20 -12 -33
-33 -14 -21 -53 -65 -87 -99 -384 -380 -1393 -595 -2336 -498 -735 76 -1295
304 -1507 616 l-16 24 -21 -46z"/>
</g>
</svg>
