<?xml version="1.0" standalone="no"?>
<!DOCTYPE svg PUBLIC "-//W3C//DTD SVG 20010904//EN"
 "http://www.w3.org/TR/2001/REC-SVG-20010904/DTD/svg10.dtd">
<svg version="1.0" xmlns="http://www.w3.org/2000/svg"
 width="512.000000pt" height="512.000000pt" viewBox="0 0 512.000000 512.000000"
 preserveAspectRatio="xMidYMid meet">

<g transform="translate(0.000000,512.000000) scale(0.100000,-0.100000)"
fill="#000000" stroke="none">
<path d="M3350 4128 c-46 -32 -71 -68 -77 -115 -4 -34 11 -89 82 -302 l87
-261 -57 -75 -58 -75 -707 0 -707 0 -87 144 c-47 80 -86 146 -86 149 0 2 23 7
51 9 81 8 137 62 146 141 7 61 -25 128 -75 159 -36 22 -45 23 -327 26 -248 3
-295 1 -332 -13 -101 -39 -138 -157 -78 -249 28 -42 84 -66 158 -66 l64 0 426
-708 c234 -389 429 -715 433 -725 6 -16 -1 -18 -81 -15 l-87 3 -23 91 c-43
171 -131 326 -257 453 -201 205 -455 312 -740 312 -277 1 -515 -99 -716 -300
-133 -133 -220 -285 -270 -470 -22 -84 -25 -116 -25 -251 0 -135 3 -167 25
-251 50 -185 137 -337 270 -470 130 -130 268 -212 447 -266 117 -35 337 -44
462 -18 216 43 392 136 540 284 130 130 221 289 262 459 l22 92 250 0 c240 0
253 1 295 23 38 19 111 107 514 624 l471 603 27 -82 c15 -45 27 -82 25 -83 -1
-1 -33 -22 -72 -47 -165 -106 -285 -239 -369 -413 -85 -174 -101 -245 -100
-455 0 -146 4 -188 22 -252 99 -361 356 -624 717 -735 84 -25 101 -27 275 -27
217 0 278 13 444 92 279 134 476 374 552 671 120 469 -103 954 -541 1174 -156
77 -335 114 -510 104 l-100 -7 -133 398 c-72 218 -132 401 -132 405 0 4 48 7
108 7 121 1 174 10 211 38 90 67 85 206 -9 269 -32 23 -39 23 -315 23 -276 0
-283 0 -315 -22z m-290 -1163 c0 -3 -120 -158 -266 -345 l-266 -341 -199 331
c-110 182 -202 337 -205 345 -5 13 53 15 465 15 259 0 471 -2 471 -5z m1168
-290 c225 -45 428 -216 515 -435 140 -356 -48 -765 -415 -902 -71 -27 -100
-32 -203 -35 -146 -6 -222 10 -345 69 -69 33 -101 57 -175 132 -144 144 -205
289 -205 487 0 163 52 313 154 441 42 52 150 148 168 148 4 0 55 -146 113
-324 58 -178 116 -339 128 -357 62 -90 196 -91 264 -3 50 66 47 88 -72 445
-60 178 -110 330 -113 337 -6 17 89 16 186 -3z m-2970 -33 c215 -81 366 -243
436 -469 l7 -23 -364 0 c-362 0 -364 0 -398 -23 -53 -36 -79 -82 -79 -142 0
-66 29 -112 90 -142 43 -23 51 -23 397 -23 l353 0 -24 -65 c-70 -192 -220
-342 -418 -418 -80 -30 -89 -32 -233 -31 -137 0 -156 2 -223 26 -109 39 -177
83 -268 174 -68 67 -89 96 -127 175 -101 208 -101 409 -2 614 87 181 244 310
445 367 52 14 92 17 195 15 116 -3 139 -7 213 -35z"/>
</g>
</svg>
